<svg width="256" height="256" viewBox="0 0 256 256" fill="none" xmlns="http://www.w3.org/2000/svg">
<rect width="256" height="256" fill="white"/>
<rect x="64" y="64" width="192" height="192" fill="black"/>
<rect x="24" y="24" width="208" height="208" fill="white" stroke="black" stroke-width="16"/>
<path d="M171.847 214.235C164.318 214.235 157.571 213.013 151.607 210.568C145.642 208.124 140.851 204.506 137.233 199.715C133.713 194.924 131.856 189.155 131.66 182.408H158.353C158.744 186.222 160.064 189.155 162.313 191.208C164.562 193.164 167.496 194.142 171.113 194.142C174.829 194.142 177.762 193.311 179.913 191.648C182.064 189.888 183.14 187.493 183.14 184.462C183.14 181.919 182.26 179.817 180.5 178.155C178.838 176.493 176.736 175.124 174.193 174.048C171.749 172.973 168.229 171.751 163.633 170.382C156.984 168.328 151.558 166.275 147.353 164.222C143.149 162.168 139.531 159.137 136.5 155.128C133.469 151.119 131.953 145.888 131.953 139.435C131.953 129.853 135.424 122.373 142.367 116.995C149.309 111.519 158.353 108.782 169.5 108.782C180.842 108.782 189.984 111.519 196.927 116.995C203.869 122.373 207.584 129.902 208.073 139.582H180.94C180.744 136.257 179.522 133.666 177.273 131.808C175.024 129.853 172.14 128.875 168.62 128.875C165.589 128.875 163.144 129.706 161.287 131.368C159.429 132.933 158.5 135.231 158.5 138.262C158.5 141.586 160.064 144.177 163.193 146.035C166.322 147.893 171.211 149.897 177.86 152.048C184.509 154.297 189.887 156.448 193.993 158.502C198.198 160.555 201.816 163.537 204.847 167.448C207.878 171.359 209.393 176.395 209.393 182.555C209.393 188.422 207.878 193.751 204.847 198.542C201.913 203.333 197.611 207.146 191.94 209.982C186.269 212.817 179.571 214.235 171.847 214.235Z" fill="black"/>
<path d="M115.587 86.0667V159.547C115.587 168.64 112.8 175.827 107.227 181.107C101.751 186.387 94.5156 189.027 85.52 189.027C76.5244 189.027 69.24 186.387 63.6667 181.107C58.1911 175.827 55.4533 168.64 55.4533 159.547H72.32C72.4178 164.044 73.5422 167.613 75.6933 170.253C77.9422 172.893 81.2178 174.213 85.52 174.213C89.8222 174.213 93.0978 172.893 95.3467 170.253C97.5956 167.516 98.72 163.947 98.72 159.547V86.0667H115.587Z" fill="black"/>
<path d="M118.5 63.898C118.5 70.2493 113.351 75.398 107 75.398C100.649 75.398 95.5 70.2493 95.5 63.898C95.5 57.5467 100.649 52.398 107 52.398C113.351 52.398 118.5 57.5467 118.5 63.898Z" fill="black"/>
</svg>
