<svg width="256" height="256" viewBox="0 0 256 256" fill="none" xmlns="http://www.w3.org/2000/svg">
<rect width="256" height="256" fill="white"/>
<rect x="64" y="64" width="192" height="192" fill="black"/>
<rect x="24" y="24" width="208" height="208" fill="white" stroke="black" stroke-width="16"/>
<path d="M174.847 214.235C167.318 214.235 160.571 213.013 154.607 210.568C148.642 208.124 143.851 204.506 140.233 199.715C136.713 194.924 134.856 189.155 134.66 182.408H161.353C161.744 186.222 163.064 189.155 165.313 191.208C167.562 193.164 170.496 194.142 174.113 194.142C177.829 194.142 180.762 193.311 182.913 191.648C185.064 189.888 186.14 187.493 186.14 184.462C186.14 181.919 185.26 179.817 183.5 178.155C181.838 176.493 179.736 175.124 177.193 174.048C174.749 172.973 171.229 171.751 166.633 170.382C159.984 168.328 154.558 166.275 150.353 164.222C146.149 162.168 142.531 159.137 139.5 155.128C136.469 151.119 134.953 145.888 134.953 139.435C134.953 129.853 138.424 122.373 145.367 116.995C152.309 111.519 161.353 108.782 172.5 108.782C183.842 108.782 192.984 111.519 199.927 116.995C206.869 122.373 210.584 129.902 211.073 139.582H183.94C183.744 136.257 182.522 133.666 180.273 131.808C178.024 129.853 175.14 128.875 171.62 128.875C168.589 128.875 166.144 129.706 164.287 131.368C162.429 132.933 161.5 135.231 161.5 138.262C161.5 141.586 163.064 144.177 166.193 146.035C169.322 147.893 174.211 149.897 180.86 152.048C187.509 154.297 192.887 156.448 196.993 158.502C201.198 160.555 204.816 163.537 207.847 167.448C210.878 171.359 212.393 176.395 212.393 182.555C212.393 188.422 210.878 193.751 207.847 198.542C204.913 203.333 200.611 207.146 194.94 209.982C189.269 212.817 182.571 214.235 174.847 214.235Z" fill="black"/>
<path d="M119.627 85.04V155.147C119.627 166 116.547 174.36 110.387 180.227C104.324 186.093 96.1111 189.027 85.7467 189.027C74.8933 189.027 66.1911 185.947 59.64 179.787C53.0889 173.627 49.8133 164.876 49.8133 153.533H74.7467C74.7467 157.836 75.6267 161.111 77.3867 163.36C79.1467 165.511 81.6889 166.587 85.0133 166.587C88.0444 166.587 90.3911 165.609 92.0533 163.653C93.7156 161.698 94.5467 158.862 94.5467 155.147V85.04H119.627Z" fill="black"/>
<circle cx="107.875" cy="59.0833" r="14.8958" fill="black"/>
</svg>
